<svg width="44" height="44" viewBox="0 0 44 44" fill="none" xmlns="http://www.w3.org/2000/svg">
<path fill-rule="evenodd" clip-rule="evenodd" d="M15.7846 15.7841C15.9135 15.6553 16.0883 15.583 16.2705 15.583C16.4527 15.583 16.6275 15.6553 16.7564 15.7841L27.758 26.7857C27.8255 26.8486 27.8797 26.9245 27.9173 27.0089C27.9549 27.0932 27.9751 27.1843 27.9767 27.2766C27.9784 27.3689 27.9614 27.4606 27.9268 27.5463C27.8922 27.6319 27.8407 27.7097 27.7754 27.7749C27.7101 27.8402 27.6324 27.8917 27.5467 27.9263C27.4611 27.9609 27.3694 27.9779 27.2771 27.9762C27.1848 27.9746 27.0937 27.9544 27.0094 27.9168C26.925 27.8792 26.8491 27.8251 26.7862 27.7575L15.7846 16.7559C15.6558 16.627 15.5835 16.4522 15.5835 16.27C15.5835 16.0878 15.6558 15.913 15.7846 15.7841Z" fill="black"/>
<path fill-rule="evenodd" clip-rule="evenodd" d="M27.758 15.7841C27.8868 15.913 27.9591 16.0878 27.9591 16.27C27.9591 16.4522 27.8868 16.627 27.758 16.7559L16.7564 27.7575C16.6261 27.879 16.4537 27.9451 16.2756 27.9419C16.0974 27.9388 15.9275 27.8666 15.8015 27.7406C15.6755 27.6147 15.6033 27.4447 15.6002 27.2666C15.5971 27.0884 15.6632 26.916 15.7846 26.7857L26.7862 15.7841C26.9152 15.6553 27.0899 15.583 27.2721 15.583C27.4543 15.583 27.6291 15.6553 27.758 15.7841Z" fill="black"/>
</svg>
