<svg width="48" height="30" viewBox="0 0 48 30" fill="none" xmlns="http://www.w3.org/2000/svg">
<path d="M47.9999 25.6357V29.6353H47.5305L45.3479 26.495H45.3088V29.6353H44.8237V25.6357H45.2931L47.4836 28.7838H47.5227V25.6357H47.9999Z" fill="#1C1C1C"/>
<path d="M41.2658 29.6353H40.7573L42.2281 25.6357H42.7288L44.1995 29.6353H43.691L42.4941 26.2685H42.4628L41.2658 29.6353ZM41.4536 28.073H43.5033V28.5026H41.4536V28.073Z" fill="#1C1C1C"/>
<path d="M40.1296 25.6357V29.6353H39.6445V25.6357H40.1296Z" fill="#1C1C1C"/>
<path d="M35.8916 26.0654V25.6357H38.8957V26.0654H37.6362V29.6353H37.1511V26.0654H35.8916Z" fill="#1C1C1C"/>
<path d="M32.8198 29.6353V25.6357H35.2372V26.0654H33.3049V27.4168H35.112V27.8464H33.3049V29.2056H35.2685V29.6353H32.8198Z" fill="#1C1C1C"/>
<path d="M31.8486 25.6357V29.6353H31.3792L29.1965 26.495H29.1574V29.6353H28.6724V25.6357H29.1418L31.3322 28.7838H31.3714V25.6357H31.8486Z" fill="#1C1C1C"/>
<path d="M25.3804 29.6353V25.6357H27.7977V26.0654H25.8654V27.4168H27.6726V27.8464H25.8654V29.2056H27.829V29.6353H25.3804Z" fill="#1C1C1C"/>
<path d="M21.8234 25.6357L23.0126 29.0025H23.0595L24.2486 25.6357H24.7571L23.2864 29.6353H22.7857L21.3149 25.6357H21.8234Z" fill="#1C1C1C"/>
<path d="M16.104 25.6357H16.6594L17.7703 27.5027H17.8173L18.9282 25.6357H19.4836L18.0363 27.987V29.6353H17.5513V27.987L16.104 25.6357Z" fill="#1C1C1C"/>
<path d="M13.5381 29.6353V25.6357H14.0231V29.2056H15.885V29.6353H13.5381Z" fill="#1C1C1C"/>
<path d="M10.0415 29.6353V25.6357H11.3949C11.7091 25.6357 11.966 25.6924 12.1655 25.8056C12.3663 25.9176 12.5149 26.0693 12.6114 26.2607C12.7079 26.4521 12.7561 26.6656 12.7561 26.9012C12.7561 27.1369 12.7079 27.351 12.6114 27.5437C12.5162 27.7364 12.3689 27.89 12.1694 28.0046C11.9699 28.1179 11.7144 28.1745 11.4027 28.1745H10.4327V27.7449H11.3871C11.6022 27.7449 11.775 27.7078 11.9054 27.6336C12.0358 27.5593 12.1303 27.4591 12.189 27.3328C12.2489 27.2052 12.2789 27.0614 12.2789 26.9012C12.2789 26.7411 12.2489 26.5979 12.189 26.4716C12.1303 26.3453 12.0351 26.2463 11.9034 26.1747C11.7717 26.1018 11.597 26.0654 11.3793 26.0654H10.5265V29.6353H10.0415Z" fill="#1C1C1C"/>
<path d="M5.1416 25.6357H5.72052L7.08175 28.9557H7.12869L8.48992 25.6357H9.06883V29.6353H8.61509V26.5966H8.57597L7.32426 29.6353H6.88617L5.63446 26.5966H5.59534V29.6353H5.1416V25.6357Z" fill="#1C1C1C"/>
<path d="M4.16912 25.6357V29.6353H3.68408V25.6357H4.16912Z" fill="#1C1C1C"/>
<path d="M2.3626 26.6356C2.33913 26.4377 2.24394 26.2841 2.07705 26.1747C1.91016 26.0654 1.70545 26.0107 1.46293 26.0107C1.28561 26.0107 1.13045 26.0393 0.997453 26.0966C0.865763 26.1539 0.762758 26.2327 0.688438 26.3329C0.615422 26.4332 0.578914 26.5471 0.578914 26.6747C0.578914 26.7814 0.604339 26.8732 0.65519 26.95C0.707344 27.0255 0.773841 27.0887 0.854681 27.1395C0.93552 27.1889 1.02027 27.2299 1.10893 27.2625C1.1976 27.2937 1.27909 27.3191 1.35341 27.3387L1.76021 27.448C1.86452 27.4754 1.98056 27.5131 2.10834 27.5613C2.23742 27.6095 2.36064 27.6752 2.47799 27.7585C2.59664 27.8406 2.69443 27.946 2.77136 28.0749C2.84828 28.2038 2.88675 28.362 2.88675 28.5495C2.88675 28.7656 2.83003 28.9609 2.71659 29.1353C2.60446 29.3098 2.44018 29.4484 2.22373 29.5513C2.0086 29.6541 1.74717 29.7056 1.43946 29.7056C1.15261 29.7056 0.904227 29.6593 0.694306 29.5669C0.485688 29.4745 0.321402 29.3456 0.201446 29.1802C0.0827951 29.0149 0.0156463 28.8229 0 28.6041H0.500682C0.513721 28.7552 0.564572 28.8801 0.653234 28.9791C0.7432 29.0767 0.856636 29.1496 0.993542 29.1978C1.13175 29.2447 1.28039 29.2681 1.43946 29.2681C1.62461 29.2681 1.79085 29.2382 1.93819 29.1783C2.08553 29.1171 2.20222 29.0325 2.28828 28.9244C2.37433 28.815 2.41736 28.6875 2.41736 28.5416C2.41736 28.4088 2.3802 28.3008 2.30588 28.2175C2.23156 28.1341 2.13377 28.0664 2.01251 28.0144C1.89125 27.9623 1.76021 27.9167 1.61939 27.8777L1.12654 27.737C0.813609 27.6472 0.565875 27.519 0.383335 27.3523C0.200794 27.1857 0.109524 26.9676 0.109524 26.6981C0.109524 26.4742 0.170154 26.2789 0.291413 26.1122C0.413976 25.9443 0.578262 25.8141 0.784272 25.7217C0.991586 25.6279 1.22302 25.5811 1.47858 25.5811C1.73674 25.5811 1.96622 25.6273 2.16702 25.7197C2.36781 25.8108 2.52688 25.9358 2.64423 26.0947C2.76288 26.2535 2.82547 26.4338 2.83199 26.6356H2.3626Z" fill="#1C1C1C"/>
<path d="M11.3358 12.2781C22.0365 20.3552 7.4 22.6441 9.15386 23.1C13.8009 24.3079 18.2757 20.1834 18.2757 17.4337C18.2757 14.2694 13.8009 10.9032 10.0729 7.02316C7.47607 4.32044 8.29332 2.6542 11.978 2.41459L22.0364 1.86269L27.3204 14.4661C28.4835 17.5095 31.2949 23.2966 31.4079 23.1C31.7182 22.5603 33.1529 19.8808 33.1028 19.7259C33.0527 19.5709 26.7222 3.05357 26.7222 3.05357C26.0044 1.62451 26.2902 1.20109 26.5228 1.16801C29.6333 0.453483 29.4251 0.076377 28.2176 0.076377H16.3537C7.29247 0.0763739 6.20684 2.07332 5.79698 3.30774C4.99941 5.1933 6.11926 8.34041 11.3358 12.2781Z" fill="#1C1C1C"/>
<path d="M43.5709 0.076377C42.5431 0.0763815 37.3798 -0.0954735 36.6918 0.076377C36.0038 0.248228 36.1993 0.627714 37.3897 0.771051C38.7567 0.935655 38.5286 1.10025 38.4125 1.79493C38.2964 2.48961 36.003 12.6218 37.8962 8.15355C39.7894 3.68533 40.1122 1.39072 41.3383 1.27936C44.6084 1.10751 44.5987 0.0763726 43.5709 0.076377Z" fill="#1C1C1C"/>
</svg>
