<svg width="36" height="36" viewBox="0 0 36 36" fill="none" xmlns="http://www.w3.org/2000/svg">
<path d="M8.32818 18.2085C16.3536 24.2664 5.37629 25.9831 6.69169 26.325C10.1769 27.2309 13.5331 24.1375 13.5331 22.0753C13.5331 19.7021 10.1769 17.1774 7.38094 14.2674C5.43335 12.2403 6.04628 10.9907 8.80982 10.8109L16.3536 10.397L20.3166 19.8496C21.1889 22.1321 23.2975 26.4725 23.3822 26.325C23.6149 25.9202 24.6909 23.9106 24.6534 23.7944C24.6158 23.6782 19.8679 11.2902 19.8679 11.2902C19.3296 10.2184 19.5439 9.90082 19.7184 9.87601C22.0513 9.34011 21.8951 9.05728 20.9895 9.05728H12.0916C5.29565 9.05728 4.48142 10.555 4.17403 11.4808C3.57585 12.895 4.41574 15.2553 8.32818 18.2085Z" fill="#1C1C1C"/>
<path d="M32.5045 9.05728C31.7336 9.05729 27.8612 8.92839 27.3452 9.05728C26.8292 9.18617 26.9758 9.47079 27.8686 9.57829C28.8938 9.70174 28.7227 9.82519 28.6357 10.3462C28.5486 10.8672 26.8285 18.4663 28.2484 15.1152C29.6683 11.764 29.9104 10.043 30.8301 9.95952C33.2826 9.83063 33.2753 9.05728 32.5045 9.05728Z" fill="#1C1C1C"/>
</svg>
